<svg width="78" height="78" viewBox="0 0 78 78" fill="none" xmlns="http://www.w3.org/2000/svg">
<rect width="78" height="78" fill="white"/>
<rect x="0.25" y="0.25" width="77.5" height="77.5" stroke="#151515" stroke-opacity="0.3" stroke-width="0.5" stroke-dasharray="5 5"/>
<path d="M27.3996 53.8996V41.7996H31.8496C32.0163 41.7996 32.1913 41.8163 32.3746 41.8496C32.5579 41.8829 32.7329 41.9329 32.8996 41.9996L44.3996 46.1996C45.0329 46.4329 45.5579 46.8079 45.9746 47.3246C46.3913 47.8413 46.5996 48.4329 46.5996 49.0996C46.5996 49.3663 46.5163 49.5829 46.3496 49.7496C46.1829 49.9163 45.9663 49.9996 45.6996 49.9996H44.1496C43.3163 49.9996 42.4913 49.9496 41.6746 49.8496C40.8579 49.7496 40.0663 49.5663 39.2996 49.2996L35.5996 47.9996L35.0496 49.3496L38.9996 50.6996C39.7996 50.9663 40.6163 51.1496 41.4496 51.2496C42.2829 51.3496 43.1329 51.3996 43.9996 51.3996H53.2996C54.1663 51.3996 54.8996 51.6746 55.4996 52.2246C56.0996 52.7746 56.3996 53.4663 56.3996 54.2996L42.9996 58.4996L27.3996 53.8996ZM20.5996 56.3996V41.7996H25.9996V56.3996H20.5996ZM46.1996 39.3996L38.8996 32.4496C38.0663 31.6496 37.3746 30.7496 36.8246 29.7496C36.2746 28.7496 35.9996 27.6663 35.9996 26.4996C35.9996 25.1329 36.4746 23.9746 37.4246 23.0246C38.3746 22.0746 39.5329 21.5996 40.8996 21.5996C41.9996 21.5996 42.9913 21.9163 43.8746 22.5496C44.7579 23.1829 45.5329 23.9329 46.1996 24.7996C46.8663 23.9329 47.6413 23.1829 48.5246 22.5496C49.4079 21.9163 50.3996 21.5996 51.4996 21.5996C52.8663 21.5996 54.0246 22.0746 54.9746 23.0246C55.9246 23.9746 56.3996 25.1329 56.3996 26.4996C56.3996 27.6663 56.1246 28.7496 55.5746 29.7496C55.0246 30.7496 54.3329 31.6496 53.4996 32.4496L46.1996 39.3996Z" fill="#52B47B"/>
</svg>
