<svg width="78" height="78" viewBox="0 0 78 78" fill="none" xmlns="http://www.w3.org/2000/svg">
<g clip-path="url(#clip0_9_10)">
<path d="M77.75 0.25H0.25V77.75H77.75V0.25Z" stroke="#F4F4F4" stroke-opacity="0.6" stroke-width="0.5" stroke-dasharray="5 5"/>
<path d="M34.2496 52.3996H24.5996C23.7329 52.3996 23.0163 52.1163 22.4496 51.5496C21.8829 50.9829 21.5996 50.2663 21.5996 49.3996V28.5996C21.5996 27.7329 21.8829 27.0163 22.4496 26.4496C23.0163 25.8829 23.7329 25.5996 24.5996 25.5996H53.3996C54.2663 25.5996 54.9829 25.8829 55.5496 26.4496C56.1163 27.0163 56.3996 27.7329 56.3996 28.5996V36.8996H53.3496L44.0996 46.1496L38.3996 40.4496L30.3496 48.4996L34.2496 52.3996ZM44.0996 55.1996L37.3996 48.4996L38.3996 47.4996L44.0996 53.1996L55.4996 41.7996L56.4996 42.7996L44.0996 55.1996ZM22.9996 33.0996V36.8996H54.9996V33.0996H22.9996Z" fill="#F4F4F4"/>
</g>
<defs>
<clipPath id="clip0_9_10">
<rect width="78" height="78" fill="white"/>
</clipPath>
</defs>
</svg>
