<svg width="78" height="78" viewBox="0 0 78 78" fill="none" xmlns="http://www.w3.org/2000/svg">
<rect width="78" height="78" fill="white"/>
<rect x="0.25" y="0.25" width="77.5" height="77.5" stroke="#151515" stroke-opacity="0.3" stroke-width="0.5" stroke-dasharray="5 5"/>
<path d="M46.9996 36.3996C47.3663 36.3996 47.6913 36.2579 47.9746 35.9746C48.2579 35.6913 48.3996 35.3663 48.3996 34.9996C48.3996 34.6329 48.2579 34.3079 47.9746 34.0246C47.6913 33.7413 47.3663 33.5996 46.9996 33.5996C46.6329 33.5996 46.3079 33.7413 46.0246 34.0246C45.7413 34.3079 45.5996 34.6329 45.5996 34.9996C45.5996 35.3663 45.7413 35.6913 46.0246 35.9746C46.3079 36.2579 46.6329 36.3996 46.9996 36.3996ZM30.9996 31.6996H40.9996V30.2996H30.9996V31.6996ZM25.9496 54.3996C25.0163 50.9996 24.0579 47.6329 23.0746 44.2996C22.0913 40.9663 21.5996 37.5329 21.5996 33.9996C21.5996 31.6663 22.4163 29.6829 24.0496 28.0496C25.6829 26.4163 27.6663 25.5996 29.9996 25.5996H41.2996C42.1329 24.4996 43.1079 23.5579 44.2246 22.7746C45.3413 21.9913 46.5996 21.5996 47.9996 21.5996C48.0996 21.5996 48.1913 21.6246 48.2746 21.6746C48.3579 21.7246 48.3996 21.7996 48.3996 21.8996C48.3996 22.1996 48.3496 22.3829 48.2496 22.4496C48.0496 23.1163 47.8746 23.7663 47.7246 24.3996C47.5746 25.0329 47.4329 25.6829 47.2996 26.3496L53.5496 32.5996H56.3996V42.0496L51.2496 43.7496L48.0496 54.3996H41.5996V50.3996H32.3996V54.3996H25.9496Z" fill="#52B47B"/>
</svg>
