<svg width="78" height="78" viewBox="0 0 78 78" fill="none" xmlns="http://www.w3.org/2000/svg">
<rect width="78" height="78" fill="white"/>
<rect x="0.25" y="0.25" width="77.5" height="77.5" stroke="#151515" stroke-opacity="0.3" stroke-width="0.5" stroke-dasharray="5 5"/>
<path d="M52.9504 54.3996L41.8004 43.2496L43.3004 41.7496L54.4504 52.8996L52.9504 54.3996ZM25.1004 54.3996L23.6004 52.8996L37.5504 38.9496L30.8504 32.2996L29.8504 33.2996L28.1504 31.5496V34.9996L27.1504 35.9996L22.1504 30.9996L23.1504 29.9996H26.6004L24.8504 28.2996L28.3504 24.7996C28.7504 24.3996 29.1921 24.0996 29.6754 23.8996C30.1587 23.6996 30.6837 23.5996 31.2504 23.5996C31.8171 23.5996 32.3421 23.6996 32.8254 23.8996C33.3087 24.0996 33.7504 24.3996 34.1504 24.7996L31.2504 27.6996L33.3504 29.7996L32.3504 30.7996L39.0504 37.4496L44.3504 32.1496C43.9837 31.6829 43.7337 31.2079 43.6004 30.7246C43.4671 30.2413 43.4004 29.6996 43.4004 29.0996C43.4004 27.5663 43.9337 26.2663 45.0004 25.1996C46.0671 24.1329 47.3671 23.5996 48.9004 23.5996C49.2004 23.5996 49.4921 23.6163 49.7754 23.6496C50.0587 23.6829 50.3337 23.7663 50.6004 23.8996L46.7004 27.7996L50.2004 31.2996L54.1004 27.3996C54.2337 27.6663 54.3171 27.9413 54.3504 28.2246C54.3837 28.5079 54.4004 28.7996 54.4004 29.0996C54.4004 30.6329 53.8671 31.9329 52.8004 32.9996C51.7337 34.0663 50.4337 34.5996 48.9004 34.5996C48.3004 34.5996 47.7587 34.5329 47.2754 34.3996C46.7921 34.2663 46.3171 34.0163 45.8504 33.6496L25.1004 54.3996Z" fill="#52B47B"/>
</svg>
