<svg width="88" height="15" viewBox="0 0 88 15" fill="none" xmlns="http://www.w3.org/2000/svg">
<path d="M7.6085 0L9.4046 5.52786H15.217L10.5147 8.94427L12.3108 14.4721L7.6085 11.0557L2.9062 14.4721L4.7023 8.94427L0 5.52786H5.8124L7.6085 0Z" fill="#FFCF09"/>
<path d="M25.6085 0L27.4046 5.52786H33.217L28.5147 8.94427L30.3108 14.4721L25.6085 11.0557L20.9062 14.4721L22.7023 8.94427L18 5.52786H23.8124L25.6085 0Z" fill="#FFCF09"/>
<path d="M43.6085 0L45.4046 5.52786H51.217L46.5147 8.94427L48.3108 14.4721L43.6085 11.0557L38.9062 14.4721L40.7023 8.94427L36 5.52786H41.8124L43.6085 0Z" fill="#FFCF09"/>
<path d="M61.6085 0L63.4046 5.52786H69.2165L64.5147 8.94427L66.3108 14.4721L61.6085 11.0557L56.9062 14.4721L58.7023 8.94427L54 5.52786H59.8124L61.6085 0Z" fill="#FFCF09"/>
<path d="M79.6085 0L81.4045 5.52786H87.2165L82.5145 8.94427L84.3105 14.4721L79.6085 11.0557L74.9065 14.4721L76.7025 8.94427L72.0005 5.52786H77.8125L79.6085 0Z" fill="#FFCF09"/>
</svg>
